inDegrees=yes
name=ik_20190930-094711-sensor_data_quaternions_Walking_00_30
DataType=double
version=3
OpenSimVersion=4.1
endheader
time	pelvis_tilt	pelvis_list	pelvis_rotation	pelvis_tx	pelvis_ty	pelvis_tz	hip_flexion_r	hip_adduction_r	hip_rotation_r	knee_angle_r	knee_angle_r_beta	ankle_angle_r	subtalar_angle_r	mtp_angle_r	hip_flexion_l	hip_adduction_l	hip_rotation_l	knee_angle_l	knee_angle_l_beta	ankle_angle_l	subtalar_angle_l	mtp_angle_l	lumbar_extension	lumbar_bending	lumbar_rotation	arm_flex_r	arm_add_r	arm_rot_r	elbow_flex_r	pro_sup_r	wrist_flex_r	wrist_dev_r	arm_flex_l	arm_add_l	arm_rot_l	elbow_flex_l	pro_sup_l	wrist_flex_l	wrist_dev_l
126	1.466328699283643	-1.193268047399013	154.1987983430882	0	0.9399999999999999	0	-10.04146585561812	-11.87114822968468	-6.09923300741876	1.161920426819216	0.02027933709417314	16.33805447126275	0	0	29.53706432083816	-14.01094529116803	10.54231662835364	26.30572107818569	0.459121444925613	-15.60168995576017	0	0	0	0	0	0	-14.73998587063256	0	74.98377669003847	45.00000028148619	0	0	0	-14.73998587063256	0	74.98377669003847	45.00000028148619	0	0
126.0078125	1.263970707528024	-1.251250203222187	154.3469133865613	0	0.9399999999999999	0	-10.59189398363781	-13.02992791699693	-6.584128301263237	1.187582152500214	0.02072721869905014	17.32197365752548	0	0	29.57200295567489	-13.29070375742111	10.77618310185516	26.40702847680581	0.4608895925881645	-15.06457636006488	0	0	0	0	0	0	-14.74005006533916	0	74.98378461668645	45.00000028145119	0	0	0	-14.74005006533916	0	74.98378461668645	45.00000028145119	0	0
126.015625	1.038188851768703	-1.317577005485439	154.3182189773116	0	0.9399999999999999	0	-11.14873580164211	-14.28984769047076	-6.922566418665045	1.22096622920751	0.0213098807553308	18.41008361210132	0	0	29.57906913752546	-12.57594566118178	10.70709568015009	26.49424503405878	0.4624118086744829	-14.42725571734373	0	0	0	0	0	0	-14.74012016964855	0	74.98379327134352	45.00000028141297	0	0	0	-14.74012016964855	0	74.98379327134352	45.00000028141297	0	0
126.0234375	0.806478980035227	-1.373115249218562	154.2867248638515	0	0.9399999999999999	0	-11.70487711528875	-15.62245387840804	-7.330027894616247	1.267913419214726	0.02212926379551611	19.62477146561492	0	0	29.56159742883938	-11.79843055614921	10.46895869967833	26.50468127854766	0.4625939555023569	-13.6542351690385	0	0	0	0	0	0	-14.74018967278511	0	74.98380184940608	45.00000028137513	0	0	0	-14.74018967278511	0	74.98380184940608	45.00000028137513	0	0
126.03125	0.5886254406083237	-1.441291667273862	154.2825555864239	0	0.9399999999999999	0	-12.2621528345567	-17.04005328517734	-7.868964916962064	1.326062629053138	0.02314415896462948	20.9458709319548	0	0	29.5242216124711	-10.94983021781851	10.09835053694778	26.53042599223853	0.4630432855212459	-13.13607456915839	0	0	0	0	0	0	-14.7402598077446	0	74.98381050362194	45.000000281337	0	0	0	-14.7402598077446	0	74.98381050362194	45.000000281337	0	0
126.0390625	0.612204177535621	-1.615317385302945	154.4495170698842	0	0.9399999999999999	0	-12.60804418789906	-18.48934890139457	-8.687989404274623	1.371854316746473	0.02394337468492313	22.33983813727501	0	0	29.42641275616666	-10.02321730527236	9.152502897905961	26.86778966520518	0.4689313923911354	-10.98885530875744	0	0	0	0	0	0	-14.74032246359901	0	74.98381823064632	45.00000028130299	0	0	0	-14.74032246359901	0	74.98381823064632	45.00000028130299	0	0
126.046875	0.830826079941818	-1.875353137922773	154.7429021868837	0	0.9399999999999999	0	-12.80489117270653	-20.03092068562678	-9.703543965381318	1.375095697496032	0.02399994745131371	23.78966638511069	0	0	29.31156202031204	-9.312567489429899	8.02285939871757	27.08245101579722	0.4726779397357443	-7.990456795210453	0	0	0	0	0	0	-14.74061981186089	0	74.98385396368774	45.00000028115298	0	0	0	-14.74061981186089	0	74.98385396368774	45.00000028115298	0	0
126.0546875	0.5055066817926118	-2.052769595782619	155.0434791763681	0	0.9399999999999999	0	-13.52711702172748	-21.80113570401154	-10.84941469336967	1.3454092804654	0.02348182173100906	25.39317784479082	0	0	28.7616794990449	-8.051009185512751	8.224726708765392	26.60382919433786	0.464324413079386	-6.953184932790008	0	0	0	0	0	0	-14.74071021760455	0	74.98386510466423	45.00000028110415	0	0	0	-14.74071021760455	0	74.98386510466423	45.00000028110415	0	0
126.0625	-0.2699882133093982	-2.177968830732729	155.3337428247024	0	0.9399999999999999	0	-14.76912087931175	-23.78778951717244	-12.24872469172924	1.308352985477018	0.02283506737487152	27.19972512976569	0	0	27.72447491640648	-6.348162506085353	7.948298536494854	26.3721504327637	0.4602808558829741	-5.548053539742576	0	0	0	0	0	0	-14.7408058468525	0	74.98387688523617	45.00000028105254	0	0	0	-14.7408058468525	0	74.98387688523617	45.00000028105254	0	0
126.0703125	-0.8361167450498438	-2.520167726967032	155.6056960754802	0	0.9399999999999999	0	-15.75363109134826	-26.01566416786572	-13.98618330525455	1.237524573311466	0.02159887837862303	29.04059572316571	0	0	27.12138707626926	-4.821342174789764	7.6889781349045	26.0333963268754	0.4543684813805737	-3.729386001268618	0	0	0	0	0	0	-14.74090016111367	0	74.98388850042295	45.00000028100172	0	0	0	-14.74090016111367	0	74.98388850042295	45.00000028100172	0	0
126.078125	-0.8052722441960242	-3.126251249417081	155.9179663073753	0	0.9399999999999999	0	-16.06183605212381	-28.44418420792889	-16.06864042716559	0.7310624054062118	0.01275944601188799	29.81085496819372	0	0	27.29407094412341	-3.210259957824158	7.588914188742085	25.81835453804229	0.4506152941360574	-2.179113975066587	0	0	0	0	0	0	-14.74074541864208	0	74.98387751846052	45.00000028100283	0	0	0	-14.74074541864208	0	74.98387751846052	45.00000028100283	0	0
126.0859375	-0.3196401167206581	-3.877077712845371	156.2370462201111	0	0.9399999999999999	0	-15.5820946322455	-31.19411415888593	-18.29209588932125	0.2639009610161643	0.004605940668909268	29.92470194325973	0	0	28.09018478221727	-1.693687878909815	7.744728346283633	26.01688715903202	0.4540803420449424	-0.8126815162757558	0	0	0	0	0	0	-14.74067374981048	0	74.98387464774703	45.00000028098111	0	0	0	-14.74067374981048	0	74.98387464774703	45.00000028098111	0	0
126.09375	0.1481217653609358	-4.523448701012404	156.4387584335802	0	0.9399999999999999	0	-14.87921755728902	-34.14130408115847	-20.42915737157306	0.1352038837474606	0.002359752932876838	29.95449981996737	0	0	28.98018858866934	-0.4107387149489682	8.051869817053486	26.02594336047691	0.4542384025778795	0.4041850273526409	0	0	0	0	0	0	-14.74068929764414	0	74.98388089814955	45.00000028093011	0	0	0	-14.74068929764414	0	74.98388089814955	45.00000028093011	0	0
126.1015625	0.3650280719648633	-4.988942015701829	156.5986164932138	0	0.9399999999999999	0	-14.53002123002445	-36.82994736360985	-22.28874253857171	0.1027838398737631	0.001793916423639799	29.96539183552747	0	0	29.53987400562481	0.6860674542144058	8.041114223892142	25.96514563074571	0.4531772820163325	1.397714294316524	0	0	0	0	0	0	-14.74068554125771	0	74.98388540091295	45.00000028088308	0	0	0	-14.74068554125771	0	74.98388540091295	45.00000028088308	0	0
126.109375	0.483155863570319	-5.307525407998127	156.6414558321716	0	0.9399999999999999	0	-14.10468315552653	-39.17794456666212	-23.39608403441289	0.09287674889347923	0.001621005066739213	29.97170361291461	0	0	29.77644945098534	1.503847299914224	8.044801119502697	25.62742886355259	0.4472830124896213	1.587255356555132	0	0	0	0	0	0	-14.74059533719457	0	74.98387996032291	45.00000028087533	0	0	0	-14.74059533719457	0	74.98387996032291	45.00000028087533	0	0
126.1171875	0.644282551968386	-5.612161351955046	156.7267983627639	0	0.9399999999999999	0	-13.19443224301917	-41.18458837051117	-23.8733611916724	0.08380132039324695	0.001462608958380828	29.97735638806582	0	0	29.87183712032165	2.269073618115532	8.095751994079734	25.05635541632869	0.4373159005648501	1.377544121159012	0	0	0	0	0	0	-14.74050736823003	0	74.98387441345498	45.00000028087113	0	0	0	-14.74050736823003	0	74.98387441345498	45.00000028087113	0	0
126.125	0.7847485649752249	-5.897562616514374	156.7753496463147	0	0.9399999999999999	0	-11.92339974368671	-42.81875917995126	-23.76248116861196	0.08064016376843051	0.001407436367106551	29.98139004764715	0	0	29.7648283836545	3.001890403019408	8.025910058462681	24.26478718463049	0.4235004286675272	0.9649035794533881	0	0	0	0	0	0	-14.74047813716918	0	74.98387509601181	45.00000028084645	0	0	0	-14.74047813716918	0	74.98387509601181	45.00000028084645	0	0
126.1328125	0.8143404071868577	-6.108107418357693	156.7065725190527	0	0.9399999999999999	0	-10.71647380143508	-43.95408884271343	-23.31294502121375	0.08960707812611211	0.001563938546392447	29.98364357921108	0	0	29.40036949615601	3.554527883916789	7.808039471785253	23.44741714403276	0.4092346302519371	0.5811241475280023	0	0	0	0	0	0	-14.74049216123678	0	74.98388035337238	45.00000028080692	0	0	0	-14.74049216123678	0	74.98388035337238	45.00000028080692	0	0
126.140625	0.858574437500925	-6.409570710300217	156.6870118831333	0	0.9399999999999999	0	-9.843965317897618	-44.78114042268744	-23.07449003853423	0.11903748694539	0.002077596080496824	29.98477926809445	0	0	29.06130449119437	4.080015899879158	7.493284460473769	22.70559246230204	0.396287347083177	0.3552746179326886	0	0	0	0	0	0	-14.74045148176524	0	74.98388037088364	45.00000028077933	0	0	0	-14.74045148176524	0	74.98388037088364	45.00000028077933	0	0
126.1484375	0.9737192571493446	-6.768272290638576	156.6146163359912	0	0.9399999999999999	0	-9.050409842404941	-45.2112489701595	-22.90227540024584	0.2150067611011283	0.003752575895263557	29.9851165142367	0	0	28.76045963890662	4.573823917516072	7.053032101363852	21.94367686354973	0.3829894112626453	0.07646037797341729	0	0	0	0	0	0	-14.74058015161654	0	74.98389612858885	45.00000028071175	0	0	0	-14.74058015161654	0	74.98389612858885	45.00000028071175	0	0
126.15625	1.036812094580667	-7.152142444911964	156.5394463397656	0	0.9399999999999999	0	-8.090636875499701	-45.25294195129678	-22.64506165294546	0.658097997628477	0.01148597685939876	29.98496147634352	0	0	28.36314562238066	5.114367560841058	6.601307061590658	21.16213060486901	0.3693488557920233	-0.2292475290433861	0	0	0	0	0	0	-14.74072823129111	0	74.98391418852113	45.00000028063497	0	0	0	-14.74072823129111	0	74.98391418852113	45.00000028063497	0	0
126.1640625	1.051853955189628	-7.531899272293086	156.426424474661	0	0.9399999999999999	0	-6.484663961815141	-45.20201649723269	-21.87783552339607	1.641213639400086	0.02864458173617043	29.98483583050751	0	0	27.8894698067549	5.622865842105527	6.12528250688714	20.35774260190929	0.3553096366768344	-0.5566896976316337	0	0	0	0	0	0	-14.74090425211843	0	74.98393571746425	45.00000028054286	0	0	0	-14.74090425211843	0	74.98393571746425	45.00000028054286	0	0
126.171875	1.069490730121993	-7.907985241113728	156.2177174295874	0	0.9399999999999999	0	-4.504199236468227	-45.10716739492602	-20.74604825682998	2.603804953762324	0.04544496952289126	29.9848357040113	0	0	27.453974819708	6.032976351763616	5.555133711023764	19.69353237716365	0.3437169813296115	-0.703761340172732	0	0	0	0	0	0	-14.7411378397477	0	74.98396432002751	45.00000028042042	0	0	0	-14.7411378397477	0	74.98396432002751	45.00000028042042	0	0
126.1796875	1.033380560798469	-8.249495564117744	156.0844032590587	0	0.9399999999999999	0	-2.73074140326931	-44.95242966693782	-19.80162844912951	3.393479792103478	0.05922739547209836	29.98481563316032	0	0	26.92677985919558	6.479979696083175	5.108914563831935	18.97788009228288	0.3312264926590216	-0.9112629221145796	0	0	0	0	0	0	-14.74135467819466	0	74.98399085613472	45.00000028030713	0	0	0	-14.74135467819466	0	74.98399085613472	45.00000028030713	0	0
